<svg width="37" height="37" viewBox="0 0 37 37" fill="none" xmlns="http://www.w3.org/2000/svg">
<path fill-rule="evenodd" clip-rule="evenodd" d="M2.58798 0.119893C1.27407 0.473767 0.274363 1.48373 -0.0697576 2.80494C-0.231956 3.42765 -0.231956 25.9227 -0.0697576 26.5454C0.278408 27.8821 1.28216 28.8859 2.6189 29.2341C2.96822 29.325 3.9326 29.3416 8.86891 29.3416H14.7059V31.0034V32.6651L14.2543 32.6655C12.2064 32.6674 10.673 33.9403 10.4212 35.8476C10.3507 36.3815 10.356 36.4399 10.4914 36.6222C10.5719 36.7307 10.7159 36.8595 10.8114 36.9086C10.9458 36.9777 12.6529 36.9981 18.3713 36.9989L25.7576 37L25.9827 36.799C26.2685 36.5435 26.3277 36.1259 26.167 35.4987C25.7255 33.7754 24.2862 32.6651 22.4936 32.6651H21.9307V31.0034V29.3416H27.7677C32.704 29.3416 33.6684 29.325 34.0177 29.2341C35.3545 28.8859 36.3582 27.8821 36.7064 26.5454C36.8686 25.9227 36.8686 3.42765 36.7064 2.80494C36.3582 1.4682 35.3545 0.464447 34.0177 0.116281C33.4136 -0.0410765 3.17269 -0.0376085 2.58798 0.119893ZM34.0793 1.64506C34.5087 1.84353 34.9791 2.31401 35.1776 2.74339L35.3329 3.07927L35.3519 12.598L35.3711 22.1168H33.7092H32.0473L32.0284 13.6578L32.0094 5.19875L31.771 4.98569L31.5326 4.7727L28.3874 4.79301L25.2422 4.81324L25.0314 5.0492L24.8207 5.28516V13.701V22.1168H23.0145H21.2083L21.2075 21.8458C21.2031 20.2082 20.9451 16.6427 20.7161 15.0517L20.5918 14.1886L21.0161 13.7274C21.4446 13.2617 21.6399 12.9467 21.8352 12.4063C22.1078 11.6524 22.0822 10.6144 21.7732 9.88863C21.6844 9.68005 21.0227 8.48527 20.3028 7.23356C19.1533 5.23524 18.962 4.94198 18.7345 4.82834C18.4331 4.67784 18.174 4.71758 17.9521 4.9482C17.6429 5.26949 15.1377 9.71848 14.9929 10.2036C14.6247 11.4366 14.9628 12.8052 15.8763 13.7796L16.0866 14.0039L15.9408 15.0439C15.6886 16.8422 15.4316 20.2567 15.4289 21.8458L15.4284 22.1168H13.6222H11.8159V16.6261V11.1354L10.2847 8.07194C8.70289 4.9073 8.62067 4.77711 8.2035 4.77711C7.78634 4.77711 7.70412 4.9073 6.12231 8.07194L4.59107 11.1354V16.6261V22.1168H2.92936H1.26764V12.7359C1.26764 2.53755 1.25008 2.9917 1.66826 2.38814C1.92315 2.02039 2.30224 1.73776 2.74816 1.58314C3.0878 1.46538 4.04748 1.45866 18.4267 1.47376L33.7434 1.4898L34.0793 1.64506ZM30.6006 6.93641V7.65073L30.0864 7.67977C29.615 7.70643 29.5548 7.72832 29.3639 7.94196C29.2335 8.0879 29.1556 8.25523 29.1556 8.38954C29.1556 8.52385 29.2335 8.69118 29.3639 8.83712C29.5548 9.05076 29.615 9.07265 30.0864 9.09931L30.6006 9.12836V10.1958V11.2632L30.0864 11.2922C29.615 11.3189 29.5548 11.3408 29.3639 11.5544C29.2335 11.7003 29.1556 11.8677 29.1556 12.002C29.1556 12.1363 29.2335 12.3036 29.3639 12.4496C29.5548 12.6632 29.615 12.6851 30.0864 12.7117L30.6006 12.7408V13.8082V14.8756L30.0864 14.9046C29.615 14.9313 29.5548 14.9532 29.3639 15.1668C29.2335 15.3128 29.1556 15.4801 29.1556 15.6144C29.1556 15.7487 29.2335 15.916 29.3639 16.062C29.5548 16.2756 29.615 16.2975 30.0864 16.3242L30.6006 16.3532V17.7819V19.2105L30.0864 19.2396C29.615 19.2662 29.5548 19.2881 29.3639 19.5017C29.2335 19.6477 29.1556 19.815 29.1556 19.9493C29.1556 20.0836 29.2335 20.251 29.3639 20.3969C29.5548 20.6105 29.615 20.6324 30.0864 20.6591L30.6006 20.6881V21.4025V22.1168H28.4331H26.2657V14.1694V6.22208H28.4331H30.6006V6.93641ZM19.5045 8.7432C20.1725 9.90004 20.5038 10.5483 20.5564 10.8019C20.7454 11.7123 20.2403 12.73 19.382 13.1683C18.9523 13.3878 18.2315 13.4295 17.7327 13.2638C17.2211 13.0939 16.6012 12.4803 16.4211 11.9658C16.2498 11.4765 16.2602 10.8222 16.4458 10.4125C16.738 9.7674 18.4146 6.93973 18.4713 6.99645C18.5033 7.02838 18.9682 7.81444 19.5045 8.7432ZM9.08906 8.85916L9.93704 10.557H8.2035H6.46997L7.31795 8.85916C7.78432 7.92535 8.18284 7.16132 8.2035 7.16132C8.22417 7.16132 8.62269 7.92535 9.08906 8.85916ZM7.48102 17.0594V22.1168H6.75853H6.03605V17.0594V12.002H6.75853H7.48102V17.0594ZM10.371 17.0594V22.1168H9.64848H8.92599V17.0594V12.002H9.64848H10.371V17.0594ZM19.3082 15.4479C19.396 16.0907 19.5884 18.0463 19.6392 18.8114L19.6668 19.2268H18.3207H16.9746L16.9942 18.992C17.005 18.8628 17.0483 18.3183 17.0902 17.7819C17.1606 16.8832 17.3343 15.3974 17.4198 14.9624L17.4557 14.78L18.3385 14.7958L19.2214 14.8117L19.3082 15.4479ZM19.7633 21.3943V22.1168H18.3183H16.8733V21.3943V20.6718H18.3183H19.7633V21.3943ZM35.3566 24.9164C35.3355 26.1199 35.3155 26.3086 35.1776 26.607C34.9791 27.0363 34.5087 27.5068 34.0793 27.7053L33.7434 27.8605H18.3183H2.89323L2.55735 27.7053C2.12797 27.5068 1.65749 27.0363 1.45902 26.607C1.3211 26.3086 1.30109 26.1199 1.28006 24.9164L1.25637 23.5618H18.3183H35.3803L35.3566 24.9164ZM15.1674 25.0775C14.94 25.1694 14.7059 25.5043 14.7059 25.7378C14.7059 25.8632 14.7883 26.036 14.9166 26.1796L15.1274 26.4156L17.5494 26.4364L19.9716 26.4572L20.209 26.2451C20.4061 26.069 20.4464 25.9814 20.4464 25.7292C20.4464 25.4778 20.4059 25.3894 20.212 25.2161L19.9777 25.0067L17.6489 25.0113C16.368 25.0138 15.2514 25.0436 15.1674 25.0775ZM22.3923 25.0775C22.1648 25.1694 21.9307 25.5043 21.9307 25.7378C21.9307 26.027 22.2628 26.3741 22.5891 26.4259C22.8091 26.4609 22.8883 26.4333 23.0932 26.2502C23.2962 26.0689 23.3363 25.9829 23.3363 25.7292C23.3363 25.4778 23.2959 25.3894 23.102 25.2161C22.8646 25.004 22.6689 24.9658 22.3923 25.0775ZM20.4858 31.0034V32.6651H18.3183H16.1509V31.0034V29.3416H18.3183H20.4858V31.0034ZM23.2785 34.2177C23.7601 34.3608 24.2017 34.6906 24.4629 35.1025C24.5802 35.2875 24.6762 35.4649 24.6762 35.4969C24.6762 35.5289 21.8151 35.555 18.3183 35.555C14.8215 35.555 11.9604 35.5281 11.9604 35.4951C11.9604 35.3587 12.4176 34.7593 12.6666 34.5695C13.2714 34.1082 13.1874 34.115 18.2871 34.1124C22.1827 34.1104 22.9734 34.1271 23.2785 34.2177Z" fill="#FF6600"/>
</svg>
