<svg width="35" height="37" viewBox="0 0 35 37" fill="none" xmlns="http://www.w3.org/2000/svg">
<path fill-rule="evenodd" clip-rule="evenodd" d="M16.4521 0.108516C15.8557 0.22125 15.2974 0.411019 14.758 0.6844C14.1222 1.00656 3.63389 7.07044 3.19596 7.36897C2.08899 8.12378 1.23503 9.36776 0.861273 10.7701L0.698242 11.3817V18.4999V25.6181L0.861273 26.2297C1.23503 27.632 2.08899 28.876 3.19596 29.6308C3.63432 29.9296 14.1222 35.9932 14.7595 36.3163C16.5069 37.2019 18.4931 37.2019 20.2405 36.3163C20.8778 35.9932 31.3657 29.9296 31.804 29.6308C32.911 28.876 33.765 27.632 34.1387 26.2297L34.3018 25.6181V18.4999V11.3817L34.1387 10.7701C33.765 9.36776 32.911 8.12378 31.804 7.36897C31.335 7.04919 20.8305 0.980834 20.2015 0.666262C19.0064 0.0686971 17.6951 -0.126348 16.4521 0.108516ZM18.5479 3.08694C18.9619 3.24607 29.7182 9.42962 30.2333 9.80461C30.6398 10.1006 31.0151 10.5936 31.2437 11.1318L31.4111 11.5263L31.4312 18.2831C31.4443 22.7305 31.4257 25.159 31.3766 25.3884C31.3355 25.5801 31.217 25.9166 31.1132 26.1361C30.7261 26.9543 30.6357 27.0147 24.5059 30.5471C21.388 32.3439 18.6906 33.8697 18.5117 33.9378C18.0314 34.1207 16.9274 34.1109 16.4521 33.9194C16.0206 33.7457 5.25538 27.551 4.76673 27.1952C4.371 26.9071 4.01097 26.4317 3.76397 25.871L3.58887 25.4735L3.56885 18.7167C3.55613 14.4199 3.57506 11.8373 3.62088 11.6232C3.73831 11.0745 4.06315 10.4769 4.45642 10.0859C4.75104 9.79312 5.96308 9.06382 10.4995 6.44953C13.6204 4.65099 16.3179 3.13261 16.4937 3.07538C16.6696 3.01807 16.8785 2.95484 16.958 2.93468C17.2496 2.8609 18.1953 2.95144 18.5479 3.08694ZM9.37012 12.585C8.55785 12.8842 8.1773 13.787 8.53314 14.5706C8.64125 14.8088 9.0989 15.2313 10.8029 16.6663C11.9768 17.6549 12.9372 18.48 12.9372 18.4999C12.9372 18.5198 11.9764 19.3452 10.8021 20.3341C8.99166 21.8588 8.64508 22.1818 8.52273 22.4585C8.22095 23.1407 8.50387 23.9716 9.15332 24.3109C9.50431 24.4941 10.1366 24.507 10.4541 24.3374C10.5733 24.2738 11.9457 23.143 13.5038 21.8246C16.5485 19.2482 16.6328 19.1586 16.6328 18.4999C16.6328 17.8412 16.5485 17.7516 13.5038 15.1752C11.9457 13.8568 10.5797 12.7305 10.4683 12.6723C10.1974 12.5307 9.63801 12.4862 9.37012 12.585ZM18.1143 21.7091C17.4647 21.9969 17.1026 22.7433 17.2846 23.4193C17.394 23.8254 17.8649 24.3075 18.259 24.4169C18.452 24.4706 19.6869 24.497 21.9805 24.4969L25.4131 24.4965L25.7879 24.3221C26.8762 23.8153 26.8699 22.2394 25.7774 21.7432C25.5065 21.6201 25.226 21.6106 21.9082 21.6117C19.0914 21.6127 18.2849 21.6334 18.1143 21.7091Z" fill="#FF6600"/>
</svg>
