<svg width="37" height="37" viewBox="0 0 37 37" fill="none" xmlns="http://www.w3.org/2000/svg">
<path d="M18.5 0C14.8411 0 11.2643 1.08501 8.22196 3.11781C5.17965 5.15062 2.80846 8.03992 1.40824 11.4204C0.00801579 14.8008 -0.358346 18.5205 0.355481 22.1092C1.06931 25.6978 2.83126 28.9942 5.41853 31.5815C8.0058 34.1687 11.3022 35.9307 14.8908 36.6445C18.4795 37.3584 22.1992 36.992 25.5797 35.5918C28.9601 34.1916 31.8494 31.8204 33.8822 28.7781C35.915 25.7357 37 22.159 37 18.5C36.9947 13.5951 35.0439 8.89266 31.5756 5.42438C28.1074 1.95611 23.4049 0.005305 18.5 0V0ZM31.8308 10.7917H26.8651C25.7535 8.21552 24.2899 5.80605 22.516 3.63217C26.4419 4.70043 29.7886 7.27277 31.8308 10.7917ZM25.4375 18.5C25.4249 20.0696 25.1775 21.6285 24.7037 23.125H12.2963C11.8225 21.6285 11.5752 20.0696 11.5625 18.5C11.5752 16.9304 11.8225 15.3715 12.2963 13.875H24.7037C25.1775 15.3715 25.4249 16.9304 25.4375 18.5ZM13.5328 26.2083H23.4673C22.1587 28.7917 20.4859 31.1738 18.5 33.2815C16.5134 31.1744 14.8405 28.7922 13.5328 26.2083ZM13.5328 10.7917C14.8413 8.20825 16.5141 5.8262 18.5 3.7185C20.4866 5.82561 22.1596 8.20777 23.4673 10.7917H13.5328ZM14.4917 3.63217C12.7151 5.80558 11.2489 8.21508 10.1349 10.7917H5.16922C7.21324 7.27117 10.563 4.69862 14.4917 3.63217ZM3.79405 13.875H9.09584C8.69618 15.3845 8.48898 16.9385 8.47917 18.5C8.48898 20.0615 8.69618 21.6155 9.09584 23.125H3.79405C2.84645 20.1145 2.84645 16.8855 3.79405 13.875ZM5.16922 26.2083H10.1349C11.2489 28.7849 12.7151 31.1944 14.4917 33.3678C10.563 32.3014 7.21324 29.7288 5.16922 26.2083ZM22.516 33.3678C24.2899 31.194 25.7535 28.7845 26.8651 26.2083H31.8308C29.7886 29.7272 26.4419 32.2996 22.516 33.3678ZM33.206 23.125H27.9042C28.3038 21.6155 28.511 20.0615 28.5208 18.5C28.511 16.9385 28.3038 15.3845 27.9042 13.875H33.2029C34.1505 16.8855 34.1505 20.1145 33.2029 23.125H33.206Z" fill="#FF6600"/>
</svg>
